<svg width="20" height="20" viewBox="0 0 20 20" fill="none" xmlns="http://www.w3.org/2000/svg">
<path d="M14.9999 1.6665H6.66658C5.78253 1.6665 4.93468 2.01769 4.30956 2.64281C3.68444 3.26794 3.33325 4.11578 3.33325 4.99984V14.9998C3.33325 15.8839 3.68444 16.7317 4.30956 17.3569C4.93468 17.982 5.78253 18.3332 6.66658 18.3332H14.9999C15.4419 18.3332 15.8659 18.1576 16.1784 17.845C16.491 17.5325 16.6666 17.1085 16.6666 16.6665V3.33317C16.6666 2.89114 16.491 2.46722 16.1784 2.15466C15.8659 1.8421 15.4419 1.6665 14.9999 1.6665ZM4.99992 4.99984C4.99992 4.55781 5.17551 4.13389 5.48807 3.82133C5.80063 3.50877 6.22456 3.33317 6.66658 3.33317H14.9999V11.6665H6.66658C6.07912 11.669 5.50325 11.8302 4.99992 12.1332V4.99984ZM6.66658 16.6665C6.22456 16.6665 5.80063 16.4909 5.48807 16.1783C5.17551 15.8658 4.99992 15.4419 4.99992 14.9998C4.99992 14.5578 5.17551 14.1339 5.48807 13.8213C5.80063 13.5088 6.22456 13.3332 6.66658 13.3332H14.9999V16.6665H6.66658ZM8.33325 6.6665H11.6666C11.8876 6.6665 12.0996 6.57871 12.2558 6.42243C12.4121 6.26615 12.4999 6.05418 12.4999 5.83317C12.4999 5.61216 12.4121 5.4002 12.2558 5.24392C12.0996 5.08763 11.8876 4.99984 11.6666 4.99984H8.33325C8.11224 4.99984 7.90028 5.08763 7.744 5.24392C7.58772 5.4002 7.49992 5.61216 7.49992 5.83317C7.49992 6.05418 7.58772 6.26615 7.744 6.42243C7.90028 6.57871 8.11224 6.6665 8.33325 6.6665V6.6665Z" fill="black"/>
</svg>
