<svg width="20" height="20" viewBox="0 0 20 20" fill="none" xmlns="http://www.w3.org/2000/svg">
<g clip-path="url(#clip0_247_150)">
<path d="M6.17177 15.6139L5.61374 16.1719C5.53933 16.2463 5.45377 16.2835 5.35704 16.2835C5.26031 16.2835 5.17475 16.2463 5.10034 16.1719L-0.100551 10.971C-0.174956 10.8966 -0.212158 10.8111 -0.212158 10.7143C-0.212158 10.6176 -0.174956 10.5321 -0.100551 10.4576L5.10034 5.25675C5.17475 5.18235 5.26031 5.14515 5.35704 5.14515C5.45377 5.14515 5.53933 5.18235 5.61374 5.25675L6.17177 5.81479C6.24618 5.88919 6.28338 5.97476 6.28338 6.07148C6.28338 6.16821 6.24618 6.25378 6.17177 6.32818L1.78561 10.7143L6.17177 15.1005C6.24618 15.1749 6.28338 15.2605 6.28338 15.3572C6.28338 15.4539 6.24618 15.5395 6.17177 15.6139ZM12.7678 3.70541L8.60481 18.1139C8.57505 18.2106 8.51738 18.2832 8.43182 18.3315C8.34625 18.3799 8.25882 18.3892 8.16954 18.3594L7.47757 18.1697C7.38085 18.1399 7.3083 18.0823 7.25994 17.9967C7.21158 17.9111 7.20228 17.82 7.23204 17.7233L11.395 3.31479C11.4247 3.21806 11.4824 3.14552 11.568 3.09715C11.6535 3.04879 11.741 3.03949 11.8303 3.06925L12.5222 3.25899C12.6189 3.28875 12.6915 3.34641 12.7399 3.43198C12.7882 3.51754 12.7975 3.60869 12.7678 3.70541ZM20.1003 10.971L14.8995 16.1719C14.825 16.2463 14.7395 16.2835 14.6428 16.2835C14.546 16.2835 14.4605 16.2463 14.3861 16.1719L13.828 15.6139C13.7536 15.5395 13.7164 15.4539 13.7164 15.3572C13.7164 15.2605 13.7536 15.1749 13.828 15.1005L18.2142 10.7143L13.828 6.32818C13.7536 6.25378 13.7164 6.16821 13.7164 6.07148C13.7164 5.97476 13.7536 5.88919 13.828 5.81479L14.3861 5.25675C14.4605 5.18235 14.546 5.14515 14.6428 5.14515C14.7395 5.14515 14.825 5.18235 14.8995 5.25675L20.1003 10.4576C20.1747 10.5321 20.212 10.6176 20.212 10.7143C20.212 10.8111 20.1747 10.8966 20.1003 10.971Z" fill="black"/>
</g>
<defs>
<clipPath id="clip0_247_150">
<rect width="20" height="20" fill="white"/>
</clipPath>
</defs>
</svg>
