<svg width="20" height="20" viewBox="0 0 20 20" fill="none" xmlns="http://www.w3.org/2000/svg">
<g clip-path="url(#clip0_235_199)">
<path d="M5.71912 14.75C5.47435 14.7504 5.23801 14.6607 5.05512 14.498L-0.00488281 10L5.33612 5.25203C5.5352 5.08173 5.79316 4.99635 6.05453 5.01426C6.31591 5.03217 6.55982 5.15193 6.73381 5.3478C6.9078 5.54367 6.99797 5.8 6.98494 6.06166C6.97191 6.32332 6.85671 6.56942 6.66412 6.74703L3.00512 10L6.38312 13.002C6.53488 13.1367 6.64209 13.3143 6.69052 13.5114C6.73894 13.7084 6.72629 13.9155 6.65424 14.1051C6.5822 14.2948 6.45416 14.4581 6.28714 14.5733C6.12012 14.6884 5.92201 14.7501 5.71912 14.75V14.75ZM14.6641 14.748L20.0051 10L14.9451 5.50203C14.7469 5.32593 14.4868 5.23579 14.2221 5.25145C13.9574 5.26711 13.7097 5.38728 13.5336 5.58553C13.3575 5.78378 13.2674 6.04387 13.283 6.30858C13.2987 6.57328 13.4189 6.82093 13.6171 6.99703L16.9951 10L13.3361 13.252C13.1377 13.4281 13.0174 13.6758 13.0017 13.9406C12.9859 14.2054 13.076 14.4657 13.2521 14.664C13.4282 14.8624 13.6759 14.9827 13.9407 14.9985C14.2055 15.0142 14.4657 14.9241 14.6641 14.748V14.748ZM9.98612 16.165L11.9861 4.16503C12.0117 4.03389 12.0107 3.89894 11.9833 3.76818C11.9558 3.63741 11.9024 3.51347 11.8263 3.40368C11.7501 3.29389 11.6527 3.20048 11.5399 3.12895C11.427 3.05743 11.301 3.00925 11.1692 2.98727C11.0374 2.96528 10.9025 2.96993 10.7725 3.00093C10.6426 3.03194 10.5201 3.08868 10.4125 3.1678C10.3048 3.24693 10.2141 3.34682 10.1456 3.46159C10.0772 3.57637 10.0325 3.70369 10.0141 3.83603L8.01412 15.836C7.98854 15.9672 7.98951 16.1021 8.01696 16.2329C8.04442 16.3637 8.0978 16.4876 8.17395 16.5974C8.25011 16.7072 8.34749 16.8006 8.46036 16.8721C8.57322 16.9436 8.69927 16.9918 8.83107 17.0138C8.96286 17.0358 9.09773 17.0311 9.2277 17.0001C9.35767 16.9691 9.48011 16.9124 9.58778 16.8333C9.69545 16.7541 9.78618 16.6542 9.85459 16.5395C9.92301 16.4247 9.96773 16.2974 9.98612 16.165V16.165Z" fill="#020302"/>
</g>
<defs>
<clipPath id="clip0_235_199">
<rect width="20" height="20" fill="white"/>
</clipPath>
</defs>
</svg>
