<svg width="20" height="20" viewBox="0 0 20 20" fill="none" xmlns="http://www.w3.org/2000/svg">
<path d="M15.8334 3.3335H4.16675C3.50371 3.3335 2.86782 3.59689 2.39898 4.06573C1.93014 4.53457 1.66675 5.17045 1.66675 5.8335V14.1668C1.66675 14.8299 1.93014 15.4658 2.39898 15.9346C2.86782 16.4034 3.50371 16.6668 4.16675 16.6668H15.8334C16.4965 16.6668 17.1323 16.4034 17.6012 15.9346C18.07 15.4658 18.3334 14.8299 18.3334 14.1668V5.8335C18.3334 5.17045 18.07 4.53457 17.6012 4.06573C17.1323 3.59689 16.4965 3.3335 15.8334 3.3335V3.3335ZM15.4917 5.00016L10.5917 9.90016C10.5143 9.97827 10.4221 10.0403 10.3206 10.0826C10.219 10.1249 10.1101 10.1467 10.0001 10.1467C9.89007 10.1467 9.78115 10.1249 9.6796 10.0826C9.57805 10.0403 9.48588 9.97827 9.40842 9.90016L4.50841 5.00016H15.4917ZM16.6667 14.1668C16.6667 14.3878 16.579 14.5998 16.4227 14.7561C16.2664 14.9124 16.0544 15.0002 15.8334 15.0002H4.16675C3.94573 15.0002 3.73377 14.9124 3.57749 14.7561C3.42121 14.5998 3.33341 14.3878 3.33341 14.1668V6.17516L8.23342 11.0752C8.70217 11.5433 9.33758 11.8063 10.0001 11.8063C10.6626 11.8063 11.298 11.5433 11.7667 11.0752L16.6667 6.17516V14.1668Z" fill="black"/>
</svg>
