<svg width="28" height="40" viewBox="0 0 28 40" fill="none" xmlns="http://www.w3.org/2000/svg">
<g clip-path="url(#clip0_168_528)">
<path d="M14.1075 19.9999C14.1075 18.2318 14.8099 16.5361 16.0602 15.2859C17.3104 14.0356 19.0061 13.3333 20.7742 13.3333C22.5423 13.3333 24.238 14.0356 25.4883 15.2859C26.7385 16.5361 27.4409 18.2318 27.4409 19.9999C27.4409 21.768 26.7385 23.4637 25.4883 24.714C24.238 25.9642 22.5423 26.6666 20.7742 26.6666C19.0061 26.6666 17.3104 25.9642 16.0602 24.714C14.8099 23.4637 14.1075 21.768 14.1075 19.9999Z" fill="#1ABCFE"/>
<path d="M0.77417 33.3334C0.77417 31.5653 1.47655 29.8696 2.72679 28.6194C3.97703 27.3691 5.67273 26.6667 7.44084 26.6667H14.1075V33.3334C14.1075 35.1015 13.4051 36.7972 12.1549 38.0475C10.9046 39.2977 9.20895 40.0001 7.44084 40.0001C5.67273 40.0001 3.97703 39.2977 2.72679 38.0475C1.47655 36.7972 0.77417 35.1015 0.77417 33.3334H0.77417Z" fill="#0ACF83"/>
<path d="M14.1075 0V13.3333H20.7742C22.5423 13.3333 24.238 12.631 25.4883 11.3807C26.7385 10.1305 27.4409 8.43478 27.4409 6.66667C27.4409 4.89856 26.7385 3.20286 25.4883 1.95262C24.238 0.702379 22.5423 0 20.7742 0L14.1075 0Z" fill="#FF7262"/>
<path d="M0.77417 6.66667C0.77417 8.43478 1.47655 10.1305 2.72679 11.3807C3.97703 12.631 5.67273 13.3333 7.44084 13.3333H14.1075V0H7.44084C5.67273 0 3.97703 0.702379 2.72679 1.95262C1.47655 3.20286 0.77417 4.89856 0.77417 6.66667H0.77417Z" fill="#F24E1E"/>
<path d="M0.77417 19.9999C0.77417 21.768 1.47655 23.4637 2.72679 24.714C3.97703 25.9642 5.67273 26.6666 7.44084 26.6666H14.1075V13.3333H7.44084C5.67273 13.3333 3.97703 14.0356 2.72679 15.2859C1.47655 16.5361 0.77417 18.2318 0.77417 19.9999H0.77417Z" fill="#A259FF"/>
</g>
<defs>
<clipPath id="clip0_168_528">
<rect width="26.6667" height="40" fill="white" transform="translate(0.77417)"/>
</clipPath>
</defs>
</svg>
