<svg width="67" height="40" viewBox="0 0 67 40" fill="none" xmlns="http://www.w3.org/2000/svg">
<g clip-path="url(#clip0_168_519)">
<path d="M15.7877 10.5265H28.3551V11.5205H16.9397V19.0023H27.6744V19.9963H16.9397V28.2106H28.486V29.2046H15.7877V10.5265ZM29.481 10.5265H30.8162L36.7334 18.7407L42.7815 10.5265L51.0078 0.0925293L37.4927 19.604L44.4571 29.2046H43.0695L36.7334 20.4672L30.3711 29.2046H29.0097L36.0265 19.604L29.481 10.5265ZM44.9546 11.5205V10.5265H59.2762V11.5205H52.6783V29.2046H51.5263V11.5205H44.9546Z" fill="black"/>
<path d="M0.0654297 10.5264H1.50545L21.3624 40.0977L13.1565 29.2045L1.26981 11.939L1.21744 29.2045H0.0654297V10.5264Z" fill="black"/>
<path d="M59.1602 27.9106C59.3983 27.9106 59.5721 27.7291 59.5721 27.4945C59.5721 27.26 59.3983 27.0785 59.1602 27.0785C58.9248 27.0785 58.7483 27.26 58.7483 27.4945C58.7483 27.7291 58.9248 27.9106 59.1602 27.9106ZM60.2922 26.816C60.2922 27.5085 60.7937 27.9608 61.525 27.9608C62.304 27.9608 62.7747 27.4945 62.7747 26.6848V23.8341H62.1471V26.682C62.1471 27.1316 61.9201 27.3717 61.5194 27.3717C61.1608 27.3717 60.917 27.1483 60.9086 26.816H60.2922ZM63.5957 26.7798C63.6405 27.5001 64.2429 27.9608 65.1396 27.9608C66.0978 27.9608 66.6974 27.4778 66.6974 26.7072C66.6974 26.1013 66.3556 25.7662 65.5262 25.5736L65.0807 25.4647C64.5539 25.3418 64.341 25.1771 64.341 24.8895C64.341 24.5265 64.6716 24.2892 65.1676 24.2892C65.6383 24.2892 65.9633 24.5209 66.0222 24.8923H66.633C66.5966 24.2138 65.997 23.7363 65.176 23.7363C64.2934 23.7363 63.705 24.2138 63.705 24.9314C63.705 25.5233 64.0384 25.8751 64.7697 26.0454L65.2909 26.1711C65.826 26.2967 66.0614 26.481 66.0614 26.7881C66.0614 27.1455 65.6915 27.4052 65.1872 27.4052C64.6464 27.4052 64.2709 27.1623 64.2177 26.7798H63.5957Z" fill="black"/>
</g>
<defs>
<clipPath id="clip0_168_519">
<rect width="66.7742" height="40" fill="white"/>
</clipPath>
</defs>
</svg>
