<svg width="40" height="40" viewBox="0 0 40 40" fill="none" xmlns="http://www.w3.org/2000/svg">
<path d="M36.0938 0H3.90625C1.74889 0 0 1.74889 0 3.90625V36.0938C0 38.2511 1.74889 40 3.90625 40H36.0938C38.2511 40 40 38.2511 40 36.0938V3.90625C40 1.74889 38.2511 0 36.0938 0Z" fill="#3178C6"/>
<path fill-rule="evenodd" clip-rule="evenodd" d="M24.7656 31.7969V35.7032C25.3984 36.0313 26.1719 36.2735 27.0312 36.4375C27.8906 36.6016 28.8281 36.6797 29.7656 36.6797C30.7031 36.6797 31.5625 36.5938 32.4219 36.4141C33.2812 36.2344 33.9844 35.9376 34.6094 35.5547C35.2422 35.1407 35.7812 34.6172 36.0938 33.9141C36.4062 33.211 36.6484 32.4297 36.6484 31.4141C36.6484 30.7032 36.5391 30.086 36.3281 29.5391C36.1172 28.9922 35.8125 28.5235 35.3906 28.1329C34.9922 27.7188 34.5312 27.3516 33.9844 27.0391C33.4375 26.7266 32.8125 26.3985 32.1094 26.1016C31.5938 25.8907 31.1719 25.6876 30.7031 25.4844C30.2969 25.2813 29.9453 25.0782 29.6875 24.875C29.3984 24.6641 29.1797 24.4454 29.0234 24.2188C28.8672 23.9844 28.7891 23.7266 28.7891 23.4375C28.7891 23.1719 28.8586 22.9297 29 22.711C29.1414 22.4922 29.3359 22.3125 29.5859 22.1563C29.8359 22 30.1484 21.8829 30.5234 21.7969C30.8906 21.711 31.2969 21.6719 31.7734 21.6719C32.1016 21.6719 32.4453 21.6961 32.7891 21.7454C33.1484 21.7946 33.5156 21.8704 33.8828 21.9719C34.25 22.0735 34.6094 22.1985 34.9766 22.3547C35.3203 22.511 35.6406 22.6907 35.9141 22.8938V19.2219C35.3203 18.9954 34.6641 18.8235 33.9609 18.7141C33.2578 18.6047 32.4766 18.55 31.5391 18.55C30.6016 18.55 29.7422 18.6516 28.8828 18.8469C28.0234 19.0422 27.3203 19.3547 26.6953 19.7844C26.0625 20.2063 25.6016 20.7219 25.2109 21.425C24.8438 22.0813 24.6641 22.8313 24.6641 23.7688C24.6641 24.9407 25 25.9563 25.6797 26.7375C26.3516 27.5969 27.3984 28.2219 28.7266 28.8469C29.2656 29.0657 29.7422 29.2844 30.2109 29.4954C30.6797 29.7063 31.0703 29.925 31.3828 30.1516C31.7188 30.3782 31.9844 30.6282 32.1641 30.8938C32.3594 31.1594 32.4609 31.4719 32.4609 31.8313C32.4609 32.0813 32.4 32.3157 32.2812 32.5344C32.1625 32.7532 31.9766 32.9407 31.7266 33.0969C31.4766 33.2532 31.1719 33.3782 30.7891 33.4719C30.4219 33.5579 30.0078 33.6047 29.4609 33.6047C28.6016 33.6047 27.7422 33.4563 26.9609 33.1594C26.1016 32.8625 25.3203 32.4172 24.6172 31.8313L24.7656 31.7969ZM18.2031 22.1875H23.2031V18.9844H9.21875V22.1875H14.2188V36.4844H18.2031V22.1875Z" fill="white"/>
</svg>
